<svg id="visual" viewBox="0 0 900 600" width="900" height="600" xmlns="http://www.w3.org/2000/svg" xmlns:xlink="http://www.w3.org/1999/xlink" version="1.1"><rect x="0" y="0" width="900" height="600" fill="#ffffff"></rect><defs><linearGradient id="grad1_0" x1="33.3%" y1="0%" x2="100%" y2="100%"><stop offset="20%" stop-color="#ffffff" stop-opacity="1"></stop><stop offset="80%" stop-color="#ffffff" stop-opacity="1"></stop></linearGradient></defs><defs><linearGradient id="grad2_0" x1="0%" y1="0%" x2="66.7%" y2="100%"><stop offset="20%" stop-color="#ffffff" stop-opacity="1"></stop><stop offset="80%" stop-color="#ffffff" stop-opacity="1"></stop></linearGradient></defs><g transform="translate(900, 0)"><path d="M0 486.7C-43.9 434.8 -87.8 382.9 -152.3 367.7C-216.9 352.6 -302.1 374.2 -344.2 344.2C-386.3 314.2 -385.3 232.4 -401.9 166.5C-418.5 100.5 -452.6 50.2 -486.7 0L0 0Z" fill="#008CAF"></path></g><g transform="translate(0, 600)"><path d="M0 -486.7C57.8 -464.2 115.5 -441.6 174.1 -420.4C232.7 -399.1 292.2 -379.1 340.8 -340.8C389.4 -302.6 427.2 -246.1 449.7 -186.3C472.2 -126.4 479.5 -63.2 486.7 0L0 0Z" fill="#008CAF"></path></g></svg>